<svg width="48" height="48" viewBox="0 0 48 48" fill="none" xmlns="http://www.w3.org/2000/svg">
  <path d="M24 44C35.0457 44 44 35.0457 44 24C44 12.9543 35.0457 4 24 4C12.9543 4 4 12.9543 4 24C4 27.9318 5.1017 31.6193 7.03944 34.7654C7.20788 35.0352 7.29632 35.3574 7.24695 35.6709L6.1644 42.7758C5.99753 43.744 6.91289 44.5448 7.85654 44.2692L14.8445 42.244C15.0743 42.1783 15.3167 42.1885 15.5392 42.2729C18.1166 43.3707 20.9783 44 24 44Z" stroke="#4F46E5" stroke-width="3" stroke-linecap="round" stroke-linejoin="round"/>
  <path d="M16 20H32M16 28H24" stroke="#4F46E5" stroke-width="3" stroke-linecap="round" stroke-linejoin="round"/>
</svg> 