<svg width="100" height="100" viewBox="0 0 100 100" fill="none" xmlns="http://www.w3.org/2000/svg">
  <!-- Top diamond (blue) -->
  <path d="M50 5 L75 30 L50 55 L25 30 Z" fill="#5EAFF7" />
  <path d="M50 5 L75 30 L50 55 L25 30 Z" fill="url(#blue-gradient)" />
  
  <!-- Left diamond (green) -->
  <path d="M5 50 L30 25 L55 50 L30 75 Z" fill="#8ED1A9" />
  <path d="M5 50 L30 25 L55 50 L30 75 Z" fill="url(#green-gradient)" />
  
  <!-- Right diamond (coral) -->
  <path d="M95 50 L70 25 L45 50 L70 75 Z" fill="#FF9D92" />
  <path d="M95 50 L70 25 L45 50 L70 75 Z" fill="url(#coral-gradient)" />
  
  <!-- Bottom diamond (purple-blue) -->
  <path d="M50 95 L25 70 L50 45 L75 70 Z" fill="#99A1F0" />
  <path d="M50 95 L25 70 L50 45 L75 70 Z" fill="url(#purple-gradient)" />
  
  <!-- Gradients -->
  <defs>
    <linearGradient id="blue-gradient" x1="25" y1="5" x2="75" y2="55" gradientUnits="userSpaceOnUse">
      <stop offset="0.6" stop-color="#5EAFF7" />
      <stop offset="1" stop-color="#2E90E5" />
    </linearGradient>
    
    <linearGradient id="green-gradient" x1="5" y1="25" x2="55" y2="75" gradientUnits="userSpaceOnUse">
      <stop offset="0.6" stop-color="#8ED1A9" />
      <stop offset="1" stop-color="#55A77A" />
    </linearGradient>
    
    <linearGradient id="coral-gradient" x1="95" y1="25" x2="45" y2="75" gradientUnits="userSpaceOnUse">
      <stop offset="0.6" stop-color="#FF9D92" />
      <stop offset="1" stop-color="#F7695F" />
    </linearGradient>
    
    <linearGradient id="purple-gradient" x1="25" y1="95" x2="75" y2="45" gradientUnits="userSpaceOnUse">
      <stop offset="0.6" stop-color="#99A1F0" />
      <stop offset="1" stop-color="#7175D0" />
    </linearGradient>
  </defs>
</svg> 